<?xml version="1.0" encoding="UTF-8"?>
<svg id="Layer_1" data-name="Layer 1" xmlns="http://www.w3.org/2000/svg" version="1.1" viewBox="0 0 612 570.47">
  <defs>
    <style>
      .cls-1 {
        fill: #ffd28f;
        stroke-width: 0px;
      }
    </style>
  </defs>
  <path class="cls-1" d="M573.95,309.56l-519.34,26.46c-14.02,0-54.61-9.41-54.61-50.79h0c0-41.38,40.58-50.79,54.61-50.79l519.34,26.46c14.02,0,25.39,10.89,25.39,24.33h0c0,13.44-11.37,24.33-25.39,24.33Z"/>
  <path class="cls-1" d="M592.71,440.59l-481.29,128.96c-13.14,2.78-53.13,1.63-61.7-38.85h0c-8.57-40.48,27.52-57.74,40.66-60.52l492.25-77.19c13.14-2.78,26.06,5.62,28.84,18.76h0c2.78,13.14-5.62,26.06-18.76,28.84Z"/>
  <path class="cls-1" d="M592.71,129.88L111.42.92c-13.14-2.78-53.13-1.63-61.7,38.85h0c-8.57,40.48,27.52,57.74,40.66,60.52l492.25,77.19c13.14,2.78,26.06-5.62,28.84-18.76h0c2.78-13.14-5.62-26.06-18.76-28.84Z"/>
</svg>