<?xml version="1.0" encoding="UTF-8"?>
<svg id="_ëÎÓÈ_1" data-name="ëÎÓÈ 1" xmlns="http://www.w3.org/2000/svg" version="1.1" viewBox="0 0 595.64 3600">
  <defs>
    <style>
      .cls-1 {
        fill: #fed28f;
        stroke-width: 0px;
      }
    </style>
  </defs>
  <path class="cls-1" d="M365.06,2479.29c0,.1.02.1,0,0h0Z"/>
  <path class="cls-1" d="M311.53,2125.34c6.29-7.34,12.01-15.4,15.64-24.41,1.65-4.1,2.47-8.18,3.27-12.49.46-2.45.83-5.04,1.18-7.47.39-2.76-.69-5.51-.2-8.27.07-.37.17-.76.42-1.04.28-.3.65-.43,1.05-.45.53-.03,1.13.14,1.64.31,1.28.46,2.57.91,3.85,1.36.74.26,1.49.53,2.09,1.03.47.4.83.92,1.17,1.45,3.16,4.94,5.58,10.44,8.59,15.52,5.08,8.57,5.87,17.77,7.21,27.45,4.2,30.28-12.16,25.96-12.86,54.1-.19,7.86,4.48,29.98-11.89,53.06-11.72,16.53-58.26,23.13-55.47,61.44,1.59,21.86,4.19,22.84,2.59,36.2-4.76,39.8-43.48,64.85,29.14,130.11,15.76,14.17,49.17,75.17,40.32,76.64-20.55,3.4-.26.68-31.38-11.8-1.73-.69-2.89-2.77-4.49-3.27-3.62-1.14-6.55-2.99-8.96-5.8-4.71.4-14.58-8.79-23.58-10.32-22.29-3.83-27.32.83-53.14-14.54-5.5-3.27-12.06-8.2-12.43-8.29-32.3-7.77-67.08-119.33-35.89-178.55,5.18-9.84,13.06-37.41,26.45-51.25,10.51-10.87,32.96-20.29,53.23-36.12,15.5-12.11,10.66-29.79,13.75-43.27,1.49-6.47,9.32-12.18,13.85-16.45,8.53-8.03,17.2-15.94,24.83-24.86Z"/>
  <path class="cls-1" d="M93.58,3154.32c-22.49-99.27-22.92-59.8-12.98-119.73,7.72-46.57,44.42-42.48,56.86-67.73,7.86-15.94,9.05-34.82,20.18-47.96,17.53-20.69,28.64-16.84,44.51-44.8,30.35-53.53,5.95-66.82,16.34-107.62,8.11-31.85,26.46-43.88,15.61-60.5-.13-.21-15.66-25.92-20.66-27.84-20.36-7.84-37.79-5.1-64.28-15.98-5.65-2.32-9.1-1.25-7.25-5.41,3.86-8.68,3.45-7.15,23.61-.62,10.1,3.27,29.37,5.65,35.43,5.19,8.73-.67,20.74,7.12,29.97,9.02,9.14,1.87,20.88,8.47,24.68,12.26,6.25,6.23,14.84,9.65,22.9,12.82,8.28,3.26,16.27,6.48,23.91,11.06,3.11,1.86,6.18,3.8,9.21,5.82,2.82,1.88,6.46,3.76,8.72,6.3,2.25,2.52,4.61,4.93,6.92,7.4,3.21,3.44,6.11,7.08,9.31,10.53,1.68,1.81,3.33,3.69,4.77,5.7,1.06,1.47,1.51,3.17,2.52,4.66,2.16,3.17,4.12,6.49,5.46,10.09.51,1.39.66,3.03,1.41,4.28.94,1.55,2.15,2.74,2.92,4.44.75,1.67,1.69,3.24,2.79,4.7,2.22,2.98,5.03,5.43,7.98,7.67,7.21,5.48,15.01,10.06,21.79,16.11.01.02.02.02.04.04,12.67,11.33,29.08,13.99,42.62,21.95,6.07,3.57,4.79.19,6.47,2.55.46.65,9.05,8.51,16.83,12.98,40.89,23.45,60.34,62.21,60.49,62.39,7.47,9.37,3.7,24.32,5.29,36.86,1.11,8.77-5.21,24.17-4.93,32.73.37,11.41-7.92,29.17-12.01,35.1-4.91,7.12-2.25,10.36-18.73,19.32-77.74,42.22-72.98,74.06-74.46,77.79-20.61,51.75-37.82,54.29-40.92,57.8-4.36,4.94-3.15,6.3-4.66,7.24-3.68,2.31-2.51,10.07-4.55,16.06-1.66,4.89,1.19,3.82,5.15,23.71,2.49,12.53,8.02,16.15,5.45,28.22-1.02,4.77.84,6.6-3.93,6.65-6.38.05-11.83-1.42-9.84-8.57,5.51-19.88-22-32.4-15.8-84.02,2.66-22.09.77-23.81,2.94-36.52,1.32-7.7,13.43-38.34,29.46-52.22,6.01-5.2,7.24-4.05,7.17-15-.06-10.03-2.87-16.53-.38-24.98,4.66-15.87,2.09-35.83,12.17-45.99,10.35-10.42,49.95-28.12,42.83-70.58-3.17-18.9-7.23-21.27-9.24-25.67-9.58-20.99-9.66-22.37-16.62-27.74-79.42-61.23-60.85-80.12-93.59-112.81-3.12-3.12-4.9-4.76-4.69-5.38,2.37-6.94-49.35-27.44-54.4-28.33-.22-1.38-1.24-1.79-2.42-2.01.1,2.59,24.85,16.34,38.41,37.01,4.75,7.25,2.89,11.98,11.59,39.61,30.53,96.97-26.56,89.41-43.27,160.79-21.37,91.27-102.96,60.33-130.89,118.22-3.12,6.45-16.79,19.99-16,33.1,1.24,20.32-10.06,34.36-3.61,76.85.09.59.62,1.18.07,1.72-1.98,1.96-2.29.73,4.61,14.59,1.28,2.58-2.25,4.35-2.98,1.67-1.01-3.69-12.93-10.06-16.3-24.96Z"/>
  <path class="cls-1" d="M265.04,1121.61c12.66,25.53,3.23,46.48,14.62,76.28,2.48,6.49,6.48,18.78-.22,20.63-12.82,3.53-7.32-6.59-11.34-9.65-5.72-4.35-9.79-15.83-25.66-27.58-42.62-31.57-42.48-8.26-74.02-35.16-28.79-24.56-27.21-1.19-48.82-60.21-3.27-8.95-7.4-27.54-5.23-36.19,4.42-17.58,9.83-34.76,21.84-47.22,3.59-3.72,15.84-27.81,17.41-33.17,8.93-30.56,2.89-38.42.56-51.41-6.94-38.89,21.32-18.71-3.38-92.27-4.48-13.34-3.96-28.48,8.76-25.88,7.19,1.47-3.97,5.87,6.7,30.67,3.22,7.46,3,16.25,8.92,22.68,2.2,2.39,7.68,15.42,14.55,24.18,13.94,17.8,7.46,23.58,15.08,35.78,3.83,6.13,27.05,30.6,28.77,63.18.59,11.14-24.58,57.68-15.83,76.9,5.84,12.84,12.36,33.19,18.11,38.72,5.25,5.04,25.23,19.5,29.18,29.73Z"/>
  <path class="cls-1" d="M355.02,922.89c-1.69-4,1.03-5.64,8.03-10.81,6.79-5.01,10.2,24.03,39.88,38.94,36.57,18.36,66.42,25.49,77.46,37.2,19.43,16.72,31.25,55.14,33.86,75.13,8.05,61.82,54.57,48.78,3.21,151.2-31.96,63.74-7.48,71.74-12.05,74.63-11.31,7.16-9.8,8.07-12.79,3.68-65.59-96.45,15.54-133.38-49.66-194.64-67.65-63.56-42.84-72.55-58.5-112.63-8.96-22.94-26.33-29.97-24.43-45.63.35-2.82-3.04-12.41-5.02-17.06Z"/>
  <path class="cls-1" d="M284.94,33.27c-1.93-3.89.69-5.69,7.36-11.28,6.47-5.41,11.63,23.36,42.17,36.45,37.61,16.11,67.85,21.41,79.58,32.43,20.41,15.51,34.54,53.14,38.35,72.94,11.79,61.22,57.42,45.38,12.37,150.73-28.04,65.56-3.12,72.06-7.5,75.22-10.86,7.83-9.29,8.65-12.54,4.44-71.32-92.3,7.42-134.07-61.38-191.27-71.39-59.34-47.16-69.82-65.22-108.87-10.34-22.35-28.1-28.32-27.15-44.07.17-2.83-3.78-12.2-6.04-16.73Z"/>
  <path class="cls-1" d="M225.78,1301c6.52-12.08,19.15-2.22,26.93,10.46,42.89,69.93,45.71,33.34,72.53,65.35,8.96,10.7,11.23,20.93,42.06,34.42,5.41,2.37,33.26,8.79,38.71,8.4,18.25-1.28,35.84,5.98,53.1,14.33,8.48,4.1,20.76,20.07,25.79,28.79,33.19,57.58,15.31,40.43,15.69,80.44.41,43.83-18.39,27.89-21.72,83.88-1.24,20.83,5.31,31.92,4.95,39.51-.25,5.35,11.7,7.75.13,15.75-6.05,4.18-13.29-7.41-16.87-13.82-16.44-29.46-39.82-36.03-51.92-63.61-5.61-10.14-3.79-36.15-4.31-43.83-.57-8.4-12.64-27.51-19.09-40.95-9.66-20.14-64.47-31.31-73.1-39.34-25.24-23.5-29.33-58.93-31.7-66.2-4.73-14.46-13.81-13.13-18.77-36.51-2.45-11.51-9.29-24.8-9.74-28.21-1.19-9.16-8.46-14.95-12.33-22.62-12.87-25.48-24.01-19.42-20.32-26.24Z"/>
  <path class="cls-1" d="M74.74,306.96c14.44-4.92,16.44-16.57,35.33-19.09,43.99-5.87,32.61-1.58,72.68-8.25,33.82-5.63,21.8,2.25,84.74,17.58,57.94,14.12,77.16,66.68,90.42,84.21,3.49,4.62,22.46,32.45,32.86,56.89,2.79,6.56,5.03,12.7,5.71,19.86.4,4.26-.17,8.49.69,12.6,1.14,5.44,1.56,10.04,1.08,15.48-.48,5.41,1.26,10.98,1.21,16.5-.11,12.61-.63,25.21-1.55,37.79-.86,11.69-3.7,21.93-6.27,33.33-.29,1.28-.58,2.58-.56,3.9.02,1.26.32,2.5.67,3.7,1.31,4.55,1.72,10.53,4.8,14.26,3.76,4.53,7.14,8.97,10.13,14.09,5.96,10.16,11.11,22.1,20.78,29.36,4.29,3.22,12.49,13.92,15.64,22.69,3.18,8.87,12.59,19.66,13.18,28.39.4,6.07,5.5,24.81,10.16,34.34,5.54,11.33,10.01,21.74,13.35,33.86,5.6,20.27,9.95,40.63,9.34,61.77-.45,15.46-2.11,30.91-5.11,46.09-2.98,15.15-7.72,27.41-14.6,40.98-2.54,5.09-4.16,4.37-9.54,3.81-.44-.05-.91-.11-1.25-.4-.78-.67-.26-1.93.29-2.8,11.17-17.49,16.68-39.61,18.76-61.14-.01-.05-.03-.1-.05-.15-.78-2.33-2.56-4.37-3.72-6.55-2.8-5.31-7.91-9.19-12.87-12.34-9.35-5.96-18.8-9.04-29.56-11.53-5.92-1.37-11.52-3.29-17.26-4.87-3.2-.88-6.44-1.65-9.81-2.16-10.24-1.55-20.33-4.49-29.6-9.15-7.72-3.87-15.07-8.46-22.01-13.6-15.94-11.79-28.79-27.62-35.51-46.39-20.44-57.11-72.63-17.02-115.13-61.39-10.63-11.09-12.69-20.07-29.73-31.1-5.17-3.35-.51-.02-52.26-20.64-19.32-7.7-21.39-19.11-27.59-31.39-12.66-25.08-18.36-37.09-31.86-42.05l-19.45-17.88c49.99,3.55,71.78,27.67,82.42,31.27,72.63,24.58,79.03,18.08,121.26,18.83,26.69.48,54.39,13.07,75.44,41.56,11.55,15.63,16.78,17.9,32.96,20.92,30,5.61,46.51,32.69,44.82,56.24-2.02,28.25-9.01,28.86-6.81,54.09,1.17,13.39,8.85,28.28,18,38.04,9.3,9.92,21.82,9.79,34.08,13.01,5.64,1.48,10.9,4.12,16.04,6.87,4.01,2.13,8.31,4.23,11.4,7.58,2.19,2.92,5.31,4.94,7.72,7.5.05-1.69.08-3.36.09-5.02.07-9.07-1.26-18.08-2.59-27.05-2.46-16.69-4.95-33.58-10.82-49.48-1-2.7-2.06-5.37-3.14-8.02-4.8-11.71-10.23-23.1-14.03-35.31-1.61-5.17-3.2-10.36-5.19-15.4-2.04-5.18-4-10.88-6.66-15.7-2.25-4.08-4.49-8.15-6.74-12.23-1.58-2.87-3.17-5.74-5.1-8.38-3.12-4.25-7.06-7.78-10.36-11.88-3.14-3.92-5.11-7.83-7.59-12.18-2.85-4.98-5.81-9.89-8.89-14.73-3.08-4.84-6.27-9.63-9.78-14.18-3.02-3.93-6.02-8.47-9.76-11.73-3.52-3.06-7.73-5.2-11.47-7.97-3.48-2.58-7.04-5.05-10.36-7.83-4.92-4.11-9.24-8.45-13.01-13.62-.49-.67-.99-1.33-1.51-1.97-.07-.11-.15-.21-.24-.28-.64-.78-1.3-1.53-2.02-2.24-.68-2.75-11.27-11.44-13.06-28.59-5.94-57.17-7.09-67.84-19.36-77.88-18.86-15.45-26.83-18.4-38.93-35.25-22.96-31.94-52.23-37.01-73.96-41.44-37.51-7.65-39.16-13.04-57.24-22.36-36.97-19.07-78.77-24.22-100.78-27.28l15.29-9.38c5.72.86,2.42,0,23.3-7.11Z"/>
  <path class="cls-1" d="M506.7,3239.15c-6.4,11.83-9.29,22.79-28.58,41.18-14.72,14.02-43.82,39.34-50.4,58.58-1.84,5.38-5.79,5.75-12.36,14.2-17.05,21.94-32.43,23.29-45.51,26.95-61.82,13.83-43.09,25.79-67.21,42.25-3.13,2.13-30.14,17.13-43.82,32.73-12.16,13.86-21.6,30.59-27.88,47.81-1.96,5.37-3.94,10.78-6.87,15.7-2.84,4.76-6.52,8.95-10.18,13.12-1.88,2.15-3.78,4.31-6.14,5.92-3.56,2.45-7.92,3.46-12.21,3.95-2.02.23-4.67,1.02-4.56,3.04.05.98.81,1.76,1.54,2.42,13.01,11.71,31.59,15.68,49.04,14.24,5.14-.43,10.27-1.29,15.18-2.88,10.74-3.47,20.14-10.66,26.67-19.84,6.46-9.08,8.27-19.84,14.97-28.81,13.05-17.49,33.21-25.04,52.02-34.48,16.82-8.44,57.36-33.58,67.94-49.13,8.38-12.32,2.5-5.78,5.45-18.95,9.49-42.32,4.57-56.76,32.44-86.79,23.87-25.73,41.6-35.62,55.11-63.03,2.52-5.1,4.49-9.28,6.75-13.29l-9.39-8.46c-.65,1.14-1.31,2.32-2,3.59Z"/>
  <path class="cls-1" d="M400.33,1849.96c.2,14.39-.26,29.52,7.16,42.42,2.42,4.2,4.98,8.29,7.66,12.31,1-.22,1.98-.52,3.09-.29,49.12,10.21,61.91-3.33,57.22,3.14-1.09,1.5,2.9-.36,2.08,7.08-1.03,9.29-24.58,2.95-50.91,6.18.11.42.2.85.26,1.29-2-.05-4.05-.12-6.03-.43-18.12,3.23-36.88,11.75-50.06,33.5-29.45,48.62-85.26,44.95-113.25,55.41-16.66,6.23-21.33,19.12-24.82,39.96-8.18,48.75-64.02,65.95-86.28,63.54-17.62-1.9-6.78-.99-47.38,7.08-24.69,4.91-23.52-4.75-37.84-1.77-10.39,2.17-9.01.89-13.34-6.43-.2-.34-.33-.77.05-.95,1.88-.91,2.64-3.25,4.85-3.73,2.29-.49,10.62-6.4,15.41-16.1,3.2-6.48,6.89-4.15,16.4-6.14,11.12-2.33,7.52-2.4,18.82-11.05,14.44-11.03,26.97-25.89,26.93-44.06-.15-61.31.07-100.3,124.77-110.8,30.83-2.6,53.91,6.32,79.85-8.29,2.37-1.34,11.89-5.67,11.33-4.29-.8,2-.86,1.07,12.29-1.92,17-3.86,31.36-3.35,41.4-2.33-.7-1.07-1.36-2.19-1.99-3.38-4.89-9.24-10.23-18.99-17.3-26.78-2.32-2.55-4.26-15.11-23.28-21.87-30.87-10.97-83.39,5.29-122.78-39.34-27.55-31.22-34.13-35.06-38.56-48.65-1.15-3.53-9.51-18.59-7.21-31.05,1.28-6.99-.59-12.86.79-20.07,3.85-20.08.52-31.57-4.32-40.22-27.35-48.99-5.56-73.89.61-103.22,1.14-5.42,8.85-.26,9.61-.09,11.35,2.57-1.64,18.45,14.1,35.05,19.91,21,38.9,31.73,46.82,38.44,35.38,29.94,26.68,64.3,44.33,84.72,8.36,9.68,17.55,18.27,29.86,22.82,11.79,4.36,22.95,10.38,32.89,18.09,14.67,11.38,27.99,28.08,32.44,46.48,2.81,11.66,4.2,23.73,4.36,35.72Z"/>
  <path class="cls-1" d="M467.05,2688.91c-2.53,4.56,6.86,11.83-6.7,13.8-7.09,1.03-8.4-12.21-8.75-19.37-1.6-32.83-19.16-48.69-17.79-78.02-.51-11.29,12.35-33.2,15.22-40.13,3.14-7.59.86-29.5,1.06-44.03.28-21.76-42.73-55.24-46.79-66-11.86-31.45-.1-64.15.98-71.52,2.14-14.67-6.37-17.44-.59-40,2.85-11.12,2.63-25.67,3.72-28.84,2.92-8.52-.91-16.72-.97-25.1-.21-27.82-12.55-27.35-6.38-31.71,10.92-7.72,17.68,6.35,18.98,20.8,7.16,79.62,25.47,48.9,35.02,88.45,3.19,13.22.74,23.14,21.82,48.27,3.7,4.41,25.24,22.07,30.16,24.1,16.49,6.78,28.7,20.74,40.15,35.5,5.63,7.26,9.44,26.51,10.05,36.31,4.05,64.63-4.14,41.93-21.13,77.02-18.62,38.45-28.14,16.39-55.28,63.83-10.1,17.65-9.19,30.17-12.78,36.64Z"/>
</svg>