<?xml version="1.0" encoding="UTF-8"?>
<svg id="_ëÎÓÈ_1" data-name="ëÎÓÈ 1" xmlns="http://www.w3.org/2000/svg" version="1.1" viewBox="0 0 3600 595.64">
  <defs>
    <style>
      .cls-1 {
        fill: #fed28f;
        stroke-width: 0px;
      }
    </style>
  </defs>
  <path class="cls-1" d="M1122.09,366.45c-.1,0-.1.02,0,0h0Z"/>
  <path class="cls-1" d="M1476.04,312.91c7.34,6.29,15.4,12.01,24.41,15.64,4.1,1.65,8.18,2.47,12.49,3.27,2.45.46,5.04.83,7.47,1.18,2.76.39,5.51-.69,8.27-.2.37.07.76.17,1.04.42.3.28.43.65.45,1.05.03.53-.14,1.13-.31,1.64-.46,1.28-.91,2.57-1.36,3.85-.26.74-.53,1.49-1.03,2.09-.4.47-.92.83-1.45,1.17-4.94,3.16-10.44,5.58-15.52,8.59-8.57,5.08-17.77,5.87-27.45,7.21-30.28,4.2-25.96-12.16-54.1-12.86-7.86-.19-29.98,4.48-53.06-11.89-16.53-11.72-23.13-58.26-61.44-55.47-21.86,1.59-22.84,4.19-36.2,2.59-39.8-4.76-64.85-43.48-130.11,29.14-14.17,15.76-75.17,49.17-76.64,40.32-3.4-20.55-.68-.26,11.8-31.38.69-1.73,2.77-2.89,3.27-4.49,1.14-3.62,2.99-6.55,5.8-8.96-.4-4.71,8.79-14.58,10.32-23.58,3.83-22.29-.83-27.32,14.54-53.14,3.27-5.5,8.2-12.06,8.29-12.43,7.77-32.3,119.33-67.08,178.55-35.89,9.84,5.18,37.41,13.06,51.25,26.45,10.87,10.51,20.29,32.96,36.12,53.23,12.11,15.5,29.79,10.66,43.27,13.75,6.47,1.49,12.18,9.32,16.45,13.85,8.03,8.53,15.94,17.2,24.86,24.83Z"/>
  <path class="cls-1" d="M447.06,94.97c99.27-22.49,59.8-22.92,119.73-12.98,46.57,7.72,42.48,44.42,67.73,56.86,15.94,7.86,34.82,9.05,47.96,20.18,20.69,17.53,16.84,28.64,44.8,44.51,53.53,30.35,66.82,5.95,107.62,16.34,31.85,8.11,43.88,26.46,60.5,15.61.21-.13,25.92-15.66,27.84-20.66,7.84-20.36,5.1-37.79,15.98-64.28,2.32-5.65,1.25-9.1,5.41-7.25,8.68,3.86,7.15,3.45.62,23.61-3.27,10.1-5.65,29.37-5.19,35.43.67,8.73-7.12,20.74-9.02,29.97-1.87,9.14-8.47,20.88-12.26,24.68-6.23,6.25-9.65,14.84-12.82,22.9-3.26,8.28-6.48,16.27-11.06,23.91-1.86,3.11-3.8,6.18-5.82,9.21-1.88,2.82-3.76,6.46-6.3,8.72-2.52,2.25-4.93,4.61-7.4,6.92-3.44,3.21-7.08,6.11-10.53,9.31-1.81,1.68-3.69,3.33-5.7,4.77-1.47,1.06-3.17,1.51-4.66,2.52-3.17,2.16-6.49,4.12-10.09,5.46-1.39.51-3.03.66-4.28,1.41-1.55.94-2.74,2.15-4.44,2.92-1.67.75-3.24,1.69-4.7,2.79-2.98,2.22-5.43,5.03-7.67,7.98-5.48,7.21-10.06,15.01-16.11,21.79-.02.01-.02.02-.04.04-11.33,12.67-13.99,29.08-21.95,42.62-3.57,6.07-.19,4.79-2.55,6.47-.65.46-8.51,9.05-12.98,16.83-23.45,40.89-62.21,60.34-62.39,60.49-9.37,7.47-24.32,3.7-36.86,5.29-8.77,1.11-24.17-5.21-32.73-4.93-11.41.37-29.17-7.92-35.1-12.01-7.12-4.91-10.36-2.25-19.32-18.73-42.22-77.74-74.06-72.98-77.79-74.46-51.75-20.61-54.29-37.82-57.8-40.92-4.94-4.36-6.3-3.15-7.24-4.66-2.31-3.68-10.07-2.51-16.06-4.55-4.89-1.66-3.82,1.19-23.71,5.15-12.53,2.49-16.15,8.02-28.22,5.45-4.77-1.02-6.6.84-6.65-3.93-.05-6.38,1.42-11.83,8.57-9.84,19.88,5.51,32.4-22,84.02-15.8,22.09,2.66,23.81.77,36.52,2.94,7.7,1.32,38.34,13.43,52.22,29.46,5.2,6.01,4.05,7.24,15,7.17,10.03-.06,16.53-2.87,24.98-.38,15.87,4.66,35.83,2.09,45.99,12.17,10.42,10.35,28.12,49.95,70.58,42.83,18.9-3.17,21.27-7.23,25.67-9.24,20.99-9.58,22.37-9.66,27.74-16.62,61.23-79.42,80.12-60.85,112.81-93.59,3.12-3.12,4.76-4.9,5.38-4.69,6.94,2.37,27.44-49.35,28.33-54.4,1.38-.22,1.79-1.24,2.01-2.42-2.59.1-16.34,24.85-37.01,38.41-7.25,4.75-11.98,2.89-39.61,11.59-96.97,30.53-89.41-26.56-160.79-43.27-91.27-21.37-60.33-102.96-118.22-130.89-6.45-3.12-19.99-16.79-33.1-16-20.32,1.24-34.36-10.06-76.85-3.61-.59.09-1.18.62-1.72.07-1.96-1.98-.73-2.29-14.59,4.61-2.58,1.28-4.35-2.25-1.67-2.98,3.69-1.01,10.06-12.93,24.96-16.3Z"/>
  <path class="cls-1" d="M2515.51,266.43c-25.53,12.66-46.48,3.23-76.28,14.62-6.49,2.48-18.78,6.48-20.63-.22-3.53-12.82,6.59-7.32,9.65-11.34,4.35-5.72,15.83-9.79,27.58-25.66,31.57-42.62,8.26-42.48,35.16-74.02,24.56-28.79,1.19-27.21,60.21-48.82,8.95-3.27,27.54-7.4,36.19-5.23,17.58,4.42,34.76,9.83,47.22,21.84,3.72,3.59,27.81,15.84,33.17,17.41,30.56,8.93,38.42,2.89,51.41.56,38.89-6.94,18.71,21.32,92.27-3.38,13.34-4.48,28.48-3.96,25.88,8.76-1.47,7.19-5.87-3.97-30.67,6.7-7.46,3.22-16.25,3-22.68,8.92-2.39,2.2-15.42,7.68-24.18,14.55-17.8,13.94-23.58,7.46-35.78,15.08-6.13,3.83-30.6,27.05-63.18,28.77-11.14.59-57.68-24.58-76.9-15.83-12.84,5.84-33.19,12.36-38.72,18.11-5.04,5.25-19.5,25.23-29.73,29.18Z"/>
  <path class="cls-1" d="M2712.69,386.16c4-1.69,5.64,1.03,10.81,8.03,5.01,6.79-24.03,10.2-38.94,39.88-18.36,36.57-25.49,66.42-37.2,77.46-16.72,19.43-55.14,31.25-75.13,33.86-61.82,8.05-48.78,54.57-151.2,3.21-63.74-31.96-71.74-7.48-74.63-12.05-7.16-11.31-8.07-9.8-3.68-12.79,96.45-65.59,133.38,15.54,194.64-49.66,63.56-67.65,72.55-42.84,112.63-58.5,22.94-8.96,29.97-26.33,45.63-24.43,2.82.35,12.41-3.04,17.06-5.02Z"/>
  <path class="cls-1" d="M3588.05,311.62c3.89-1.93,5.69.69,11.28,7.36,5.41,6.47-23.36,11.63-36.45,42.17-16.11,37.61-21.41,67.85-32.43,79.58-15.51,20.41-53.14,34.54-72.94,38.35-61.22,11.79-45.38,57.42-150.73,12.37-65.56-28.04-72.06-3.12-75.22-7.5-7.83-10.86-8.65-9.29-4.44-12.54,92.3-71.32,134.07,7.42,191.27-61.38,59.34-71.39,69.82-47.16,108.87-65.22,22.35-10.34,28.32-28.1,44.07-27.15,2.83.17,12.2-3.78,16.73-6.04Z"/>
  <path class="cls-1" d="M2300.39,227.17c12.08,6.52,2.22,19.15-10.46,26.93-69.93,42.89-33.34,45.71-65.35,72.53-10.7,8.96-20.93,11.23-34.42,42.06-2.37,5.41-8.79,33.26-8.4,38.71,1.28,18.25-5.98,35.84-14.33,53.1-4.1,8.48-20.07,20.76-28.79,25.79-57.58,33.19-40.43,15.31-80.44,15.69-43.83.41-27.89-18.39-83.88-21.72-20.83-1.24-31.92,5.31-39.51,4.95-5.35-.25-7.75,11.7-15.75.13-4.18-6.05,7.41-13.29,13.82-16.87,29.46-16.44,36.03-39.82,63.61-51.92,10.14-5.61,36.15-3.79,43.83-4.31,8.4-.57,27.51-12.64,40.95-19.09,20.14-9.66,31.31-64.47,39.34-73.1,23.5-25.24,58.93-29.33,66.2-31.7,14.46-4.73,13.13-13.81,36.51-18.77,11.51-2.45,24.8-9.29,28.21-9.74,9.16-1.19,14.95-8.46,22.62-12.33,25.48-12.87,19.42-24.01,26.24-20.32Z"/>
  <path class="cls-1" d="M3432.1,64.59c4.92,14.44,16.57,16.44,19.09,35.33,5.87,43.99,1.58,32.61,8.25,72.68,5.63,33.82-2.25,21.8-17.58,84.74-14.12,57.94-66.68,77.16-84.21,90.42-4.62,3.49-32.45,22.46-56.89,32.86-6.56,2.79-12.7,5.03-19.86,5.71-4.26.4-8.49-.17-12.6.69-5.44,1.14-10.04,1.56-15.48,1.08-5.41-.48-10.98,1.26-16.5,1.21-12.61-.11-25.21-.63-37.79-1.55-11.69-.86-21.93-3.7-33.33-6.27-1.28-.29-2.58-.58-3.9-.56-1.26.02-2.5.32-3.7.67-4.55,1.31-10.53,1.72-14.26,4.8-4.53,3.76-8.97,7.14-14.09,10.13-10.16,5.96-22.1,11.11-29.36,20.78-3.22,4.29-13.92,12.49-22.69,15.64-8.87,3.18-19.66,12.59-28.39,13.18-6.07.4-24.81,5.5-34.34,10.16-11.33,5.54-21.74,10.01-33.86,13.35-20.27,5.6-40.63,9.95-61.77,9.34-15.46-.45-30.91-2.11-46.09-5.11-15.15-2.98-27.41-7.72-40.98-14.6-5.09-2.54-4.37-4.16-3.81-9.54.05-.44.11-.91.4-1.25.67-.78,1.93-.26,2.8.29,17.49,11.17,39.61,16.68,61.14,18.76.05-.01.1-.03.15-.05,2.33-.78,4.37-2.56,6.55-3.72,5.31-2.8,9.19-7.91,12.34-12.87,5.96-9.35,9.04-18.8,11.53-29.56,1.37-5.92,3.29-11.52,4.87-17.26.88-3.2,1.65-6.44,2.16-9.81,1.55-10.24,4.49-20.33,9.15-29.6,3.87-7.72,8.46-15.07,13.6-22.01,11.79-15.94,27.62-28.79,46.39-35.51,57.11-20.44,17.02-72.63,61.39-115.13,11.09-10.63,20.07-12.69,31.1-29.73,3.35-5.17.02-.51,20.64-52.26,7.7-19.32,19.11-21.39,31.39-27.59,25.08-12.66,37.09-18.36,42.05-31.86l17.88-19.45c-3.55,49.99-27.67,71.78-31.27,82.42-24.58,72.63-18.08,79.03-18.83,121.26-.48,26.69-13.07,54.39-41.56,75.44-15.63,11.55-17.9,16.78-20.92,32.96-5.61,30-32.69,46.51-56.24,44.82-28.25-2.02-28.86-9.01-54.09-6.81-13.39,1.17-28.28,8.85-38.04,18-9.92,9.3-9.79,21.82-13.01,34.08-1.48,5.64-4.12,10.9-6.87,16.04-2.13,4.01-4.23,8.31-7.58,11.4-2.92,2.19-4.94,5.31-7.5,7.72,1.69.05,3.36.08,5.02.09,9.07.07,18.08-1.26,27.05-2.59,16.69-2.46,33.58-4.95,49.48-10.82,2.7-1,5.37-2.06,8.02-3.14,11.71-4.8,23.1-10.23,35.31-14.03,5.17-1.61,10.36-3.2,15.4-5.19,5.18-2.04,10.88-4,15.7-6.66,4.08-2.25,8.15-4.49,12.23-6.74,2.87-1.58,5.74-3.17,8.38-5.1,4.25-3.12,7.78-7.06,11.88-10.36,3.92-3.14,7.83-5.11,12.18-7.59,4.98-2.85,9.89-5.81,14.73-8.89,4.84-3.08,9.63-6.27,14.18-9.78,3.93-3.02,8.47-6.02,11.73-9.76,3.06-3.52,5.2-7.73,7.97-11.47,2.58-3.48,5.05-7.04,7.83-10.36,4.11-4.92,8.45-9.24,13.62-13.01.67-.49,1.33-.99,1.97-1.51.11-.07.21-.15.28-.24.78-.64,1.53-1.3,2.24-2.02,2.75-.68,11.44-11.27,28.59-13.06,57.17-5.94,67.84-7.09,77.88-19.36,15.45-18.86,18.4-26.83,35.25-38.93,31.94-22.96,37.01-52.23,41.44-73.96,7.65-37.51,13.04-39.16,22.36-57.24,19.07-36.97,24.22-78.77,27.28-100.78l9.38,15.29c-.86,5.72,0,2.42,7.11,23.3Z"/>
  <path class="cls-1" d="M322.36,518.23c-11.83-6.4-22.79-9.29-41.18-28.58-14.02-14.72-39.34-43.82-58.58-50.4-5.38-1.84-5.75-5.79-14.2-12.36-21.94-17.05-23.29-32.43-26.95-45.51-13.83-61.82-25.79-43.09-42.25-67.21-2.13-3.13-17.13-30.14-32.73-43.82-13.86-12.16-30.59-21.6-47.81-27.88-5.37-1.96-10.78-3.94-15.7-6.87-4.76-2.84-8.95-6.52-13.12-10.18-2.15-1.88-4.31-3.78-5.92-6.14-2.45-3.56-3.46-7.92-3.95-12.21-.23-2.02-1.02-4.67-3.04-4.56-.98.05-1.76.81-2.42,1.54C2.81,217.06-1.16,235.64.28,253.09c.43,5.14,1.29,10.27,2.88,15.18,3.47,10.74,10.66,20.14,19.84,26.67,9.08,6.46,19.84,8.27,28.81,14.97,17.49,13.05,25.04,33.21,34.48,52.02,8.44,16.82,33.58,57.36,49.13,67.94,12.32,8.38,5.78,2.5,18.95,5.45,42.32,9.49,56.76,4.57,86.79,32.44,25.73,23.87,35.62,41.6,63.03,55.11,5.1,2.52,9.28,4.49,13.29,6.75l8.46-9.39c-1.14-.65-2.32-1.31-3.59-2Z"/>
  <path class="cls-1" d="M1751.43,401.72c-14.39.2-29.52-.26-42.42,7.16-4.2,2.42-8.29,4.98-12.31,7.66.22,1,.52,1.98.29,3.09-10.21,49.12,3.33,61.91-3.14,57.22-1.5-1.09.36,2.9-7.08,2.08-9.29-1.03-2.95-24.58-6.18-50.91-.42.11-.85.2-1.29.26.05-2,.12-4.05.43-6.03-3.23-18.12-11.75-36.88-33.5-50.06-48.62-29.45-44.95-85.26-55.41-113.25-6.23-16.66-19.12-21.33-39.96-24.82-48.75-8.18-65.95-64.02-63.54-86.28,1.9-17.62.99-6.78-7.08-47.38-4.91-24.69,4.75-23.52,1.77-37.84-2.17-10.39-.89-9.01,6.43-13.34.34-.2.77-.33.95.05.91,1.88,3.25,2.64,3.73,4.85.49,2.29,6.4,10.62,16.1,15.41,6.48,3.2,4.15,6.89,6.14,16.4,2.33,11.12,2.4,7.52,11.05,18.82,11.03,14.44,25.89,26.97,44.06,26.93,61.31-.15,100.3.07,110.8,124.77,2.6,30.83-6.32,53.91,8.29,79.85,1.34,2.37,5.67,11.89,4.29,11.33-2-.8-1.07-.86,1.92,12.29,3.86,17,3.35,31.36,2.33,41.4,1.07-.7,2.19-1.36,3.38-1.99,9.24-4.89,18.99-10.23,26.78-17.3,2.55-2.32,15.11-4.26,21.87-23.28,10.97-30.87-5.29-83.39,39.34-122.78,31.22-27.55,35.06-34.13,48.65-38.56,3.53-1.15,18.59-9.51,31.05-7.21,6.99,1.28,12.86-.59,20.07.79,20.08,3.85,31.57.52,40.22-4.32,48.99-27.35,73.89-5.56,103.22.61,5.42,1.14.26,8.85.09,9.61-2.57,11.35-18.45-1.64-35.05,14.1-21,19.91-31.73,38.9-38.44,46.82-29.94,35.38-64.3,26.68-84.72,44.33-9.68,8.36-18.27,17.55-22.82,29.86-4.36,11.79-10.38,22.95-18.09,32.89-11.38,14.67-28.08,27.99-46.48,32.44-11.66,2.81-23.73,4.2-35.72,4.36Z"/>
  <path class="cls-1" d="M912.47,468.44c-4.56-2.53-11.83,6.86-13.8-6.7-1.03-7.09,12.21-8.4,19.37-8.75,32.83-1.6,48.69-19.16,78.02-17.79,11.29-.51,33.2,12.35,40.13,15.22,7.59,3.14,29.5.86,44.03,1.06,21.76.28,55.24-42.73,66-46.79,31.45-11.86,64.15-.1,71.52.98,14.67,2.14,17.44-6.37,40-.59,11.12,2.85,25.67,2.63,28.84,3.72,8.52,2.92,16.72-.91,25.1-.97,27.82-.21,27.35-12.55,31.71-6.38,7.72,10.92-6.35,17.68-20.8,18.98-79.62,7.16-48.9,25.47-88.45,35.02-13.22,3.19-23.14.74-48.27,21.82-4.41,3.7-22.07,25.24-24.1,30.16-6.78,16.49-20.74,28.7-35.5,40.15-7.26,5.63-26.51,9.44-36.31,10.05-64.63,4.05-41.93-4.14-77.02-21.13-38.45-18.62-16.39-28.14-63.83-55.28-17.65-10.1-30.17-9.19-36.64-12.78Z"/>
</svg>