<?xml version="1.0" encoding="UTF-8"?>
<svg id="_ëÎÓÈ_1" data-name=" ëÎÓÈ 1" xmlns="http://www.w3.org/2000/svg" version="1.1" viewBox="0 0 3600 595.6">
  <defs>
    <style>
      .cls-1 {
        fill: #fed28f;
        stroke-width: 0px;
      }
    </style>
  </defs>
  <path class="cls-1" d="M1100.5,367.4c-.1,0-.1,0,0,0h0Z"/>
  <path class="cls-1" d="M1460.4,312.9c7.5,6.4,15.7,12.2,24.8,15.9,4.2,1.7,8.3,2.5,12.7,3.3,2.5.5,5.1.8,7.6,1.2,2.8.4,5.6-.7,8.4-.2.4,0,.8.2,1.1.4.3.3.4.7.5,1.1,0,.5-.1,1.1-.3,1.7-.5,1.3-.9,2.6-1.4,3.9-.3.8-.5,1.5-1,2.1-.4.5-.9.8-1.5,1.2-5,3.2-10.6,5.7-15.8,8.7-8.7,5.2-18.1,6-27.9,7.3-30.8,4.3-26.4-12.4-55-13.1-8-.2-30.5,4.6-54-12.1-16.8-11.9-23.5-59.2-62.5-56.4-22.2,1.6-23.2,4.3-36.8,2.6-40.5-4.8-65.9-44.2-132.3,29.6-14.4,16-76.4,50-77.9,41-3.5-20.9-.7-.3,12-31.9.7-1.8,2.8-2.9,3.3-4.6,1.2-3.7,3-6.7,5.9-9.1-.4-4.8,8.9-14.8,10.5-24,3.9-22.7-.8-27.8,14.8-54,3.3-5.6,8.3-12.3,8.4-12.6,7.9-32.8,121.3-68.2,181.6-36.5,10,5.3,38,13.3,52.1,26.9,11.1,10.7,20.6,33.5,36.7,54.1,12.3,15.8,30.3,10.8,44,14,6.6,1.5,12.4,9.5,16.7,14.1,8.2,8.7,16.2,17.5,25.3,25.2h0Z"/>
  <path class="cls-1" d="M414.1,91.3c100.9-22.9,60.8-23.3,121.8-13.2,47.4,7.9,43.2,45.2,68.9,57.8,16.2,8,35.4,9.2,48.8,20.5,21,17.8,17.1,29.1,45.6,45.3,54.4,30.9,67.9,6.1,109.4,16.6,32.4,8.2,44.6,26.9,61.5,15.9.2-.1,26.4-15.9,28.3-21,8-20.7,5.2-38.4,16.2-65.4,2.4-5.7,1.3-9.3,5.5-7.4,8.8,3.9,7.3,3.5.6,24-3.3,10.3-5.7,29.9-5.3,36,.7,8.9-7.2,21.1-9.2,30.5-1.9,9.3-8.6,21.2-12.5,25.1-6.3,6.4-9.8,15.1-13,23.3-3.3,8.4-6.6,16.5-11.2,24.3-1.9,3.2-3.9,6.3-5.9,9.4-1.9,2.9-3.8,6.6-6.4,8.9-2.6,2.3-5,4.7-7.5,7-3.5,3.3-7.2,6.2-10.7,9.5-1.8,1.7-3.8,3.4-5.8,4.9-1.5,1.1-3.2,1.5-4.7,2.6-3.2,2.2-6.6,4.2-10.3,5.6-1.4.5-3.1.7-4.4,1.4-1.6,1-2.8,2.2-4.5,3-1.7.8-3.3,1.7-4.8,2.8-3,2.3-5.5,5.1-7.8,8.1-5.6,7.3-10.2,15.3-16.4,22.2,0,0,0,0,0,0-11.5,12.9-14.2,29.6-22.3,43.3-3.6,6.2-.2,4.9-2.6,6.6-.7.5-8.7,9.2-13.2,17.1-23.8,41.6-63.3,61.4-63.4,61.5-9.5,7.6-24.7,3.8-37.5,5.4-8.9,1.1-24.6-5.3-33.3-5-11.6.4-29.7-8.1-35.7-12.2-7.2-5-10.5-2.3-19.6-19-42.9-79.1-75.3-74.2-79.1-75.7-52.6-21-55.2-38.5-58.8-41.6-5-4.4-6.4-3.2-7.4-4.7-2.3-3.7-10.2-2.6-16.3-4.6-5-1.7-3.9,1.2-24.1,5.2-12.7,2.5-16.4,8.2-28.7,5.5-4.9-1-6.7.9-6.8-4,0-6.5,1.4-12,8.7-10,20.2,5.6,32.9-22.4,85.4-16.1,22.5,2.7,24.2.8,37.1,3,7.8,1.3,39,13.7,53.1,30,5.3,6.1,4.1,7.4,15.3,7.3,10.2,0,16.8-2.9,25.4-.4,16.1,4.7,36.4,2.1,46.8,12.4,10.6,10.5,28.6,50.8,71.8,43.6,19.2-3.2,21.6-7.4,26.1-9.4,21.3-9.7,22.7-9.8,28.2-16.9,62.3-80.8,81.5-61.9,114.7-95.2,3.2-3.2,4.8-5,5.5-4.8,7.1,2.4,27.9-50.2,28.8-55.3,1.4-.2,1.8-1.3,2-2.5-2.6.1-16.6,25.3-37.6,39.1-7.4,4.8-12.2,2.9-40.3,11.8-98.6,31-90.9-27-163.5-44-92.8-21.7-61.3-104.7-120.2-133.1-6.6-3.2-20.3-17.1-33.7-16.3-20.7,1.3-34.9-10.2-78.1-3.7-.6,0-1.2.6-1.7,0-2-2-.7-2.3-14.8,4.7-2.6,1.3-4.4-2.3-1.7-3,3.8-1,10.2-13.1,25.4-16.6h0Z"/>
  <path class="cls-1" d="M2481.1,265.6c-26,12.9-47.3,3.3-77.6,14.9-6.6,2.5-19.1,6.6-21-.2-3.6-13,6.7-7.4,9.8-11.5,4.4-5.8,16.1-10,28-26.1,32.1-43.3,8.4-43.2,35.8-75.3,25-29.3,1.2-27.7,61.2-49.6,9.1-3.3,28-7.5,36.8-5.3,17.9,4.5,35.3,10,48,22.2,3.8,3.7,28.3,16.1,33.7,17.7,31.1,9.1,39.1,2.9,52.3.6,39.5-7.1,19,21.7,93.8-3.4,13.6-4.6,29-4,26.3,8.9-1.5,7.3-6-4-31.2,6.8-7.6,3.3-16.5,3.1-23.1,9.1-2.4,2.2-15.7,7.8-24.6,14.8-18.1,14.2-24,7.6-36.4,15.3-6.2,3.9-31.1,27.5-64.2,29.3-11.3.6-58.7-25-78.2-16.1-13.1,5.9-33.8,12.6-39.4,18.4-5.1,5.3-19.8,25.7-30.2,29.7h0Z"/>
  <path class="cls-1" d="M2683.2,357.1c4.1-1.7,5.7,1,11,8.2,5.1,6.9-24.4,10.4-39.6,40.6-18.7,37.2-25.9,67.5-37.8,78.8-17,19.8-56.1,31.8-76.4,34.4-62.9,8.2-49.6,55.5-153.8,3.3-64.8-32.5-73-7.6-75.9-12.3-7.3-11.5-8.2-10-3.7-13,98.1-66.7,135.6,15.8,197.9-50.5,64.6-68.8,73.8-43.6,114.5-59.5,23.3-9.1,30.5-26.8,46.4-24.8,2.9.4,12.6-3.1,17.3-5.1h0Z"/>
  <path class="cls-1" d="M3587.8,285.9c4-2,5.8.7,11.5,7.5,5.5,6.6-23.8,11.8-37.1,42.9-16.4,38.2-21.8,69-33,80.9-15.8,20.8-54,35.1-74.2,39-62.3,12-46.1,58.4-153.3,12.6-66.7-28.5-73.3-3.2-76.5-7.6-8-11-8.8-9.4-4.5-12.8,93.9-72.5,136.3,7.5,194.5-62.4,60.3-72.6,71-48,110.7-66.3,22.7-10.5,28.8-28.6,44.8-27.6,2.9.2,12.4-3.8,17-6.1h0Z"/>
  <path class="cls-1" d="M2298.7,225.7c12.3,6.6,2.3,19.5-10.6,27.4-71.1,43.6-33.9,46.5-66.5,73.8-10.9,9.1-21.3,11.4-35,42.8-2.4,5.5-8.9,33.8-8.5,39.4,1.3,18.6-6.1,36.4-14.6,54-4.2,8.6-20.4,21.1-29.3,26.2-58.6,33.8-41.1,15.6-81.8,16-44.6.4-28.4-18.7-85.3-22.1-21.2-1.3-32.5,5.4-40.2,5-5.4-.3-7.9,11.9-16,.1-4.3-6.2,7.5-13.5,14.1-17.2,30-16.7,36.6-40.5,64.7-52.8,10.3-5.7,36.8-3.9,44.6-4.4,8.5-.6,28-12.9,41.6-19.4,20.5-9.8,31.8-65.6,40-74.3,23.9-25.7,59.9-29.8,67.3-32.2,14.7-4.8,13.4-14,37.1-19.1,11.7-2.5,25.2-9.4,28.7-9.9,9.3-1.2,15.2-8.6,23-12.5,25.9-13.1,19.7-24.4,26.7-20.7h0Z"/>
  <path class="cls-1" d="M3309.5,72.1c5,14.7,16.8,16.7,19.4,35.9,6,44.7,1.6,33.2,8.4,73.9,5.7,34.4-2.3,22.2-17.9,86.2-14.4,58.9-67.8,78.5-85.6,91.9-4.7,3.5-33,22.8-57.9,33.4-6.7,2.8-12.9,5.1-20.2,5.8-4.3.4-8.6-.2-12.8.7-5.5,1.2-10.2,1.6-15.7,1.1-5.5-.5-11.2,1.3-16.8,1.2-12.8-.1-25.6-.6-38.4-1.6-11.9-.9-22.3-3.8-33.9-6.4-1.3-.3-2.6-.6-4-.6-1.3,0-2.5.3-3.8.7-4.6,1.3-10.7,1.7-14.5,4.9-4.6,3.8-9.1,7.3-14.3,10.3-10.3,6.1-22.5,11.3-29.9,21.1-3.3,4.4-14.2,12.7-23.1,15.9-9,3.2-20,12.8-28.9,13.4-6.2.4-25.2,5.6-34.9,10.3-11.5,5.6-22.1,10.2-34.4,13.6-20.6,5.7-41.3,10.1-62.8,9.5-15.7-.5-31.4-2.1-46.9-5.2-15.4-3-27.9-7.9-41.7-14.8-5.2-2.6-4.4-4.2-3.9-9.7,0-.4.1-.9.4-1.3.7-.8,2-.3,2.8.3,17.8,11.4,40.3,17,62.2,19.1,0,0,.1,0,.2,0,2.4-.8,4.4-2.6,6.7-3.8,5.4-2.8,9.3-8,12.5-13.1,6.1-9.5,9.2-19.1,11.7-30.1,1.4-6,3.3-11.7,5-17.6.9-3.3,1.7-6.5,2.2-10,1.6-10.4,4.6-20.7,9.3-30.1,3.9-7.9,8.6-15.3,13.8-22.4,12-16.2,28.1-29.3,47.2-36.1,58.1-20.8,17.3-73.9,62.4-117.1,11.3-10.8,20.4-12.9,31.6-30.2,3.4-5.3,0-.5,21-53.1,7.8-19.6,19.4-21.8,31.9-28.1,25.5-12.9,37.7-18.7,42.8-32.4l18.2-19.8c-3.6,50.8-28.1,73-31.8,83.8-25,73.9-18.4,80.4-19.1,123.3-.5,27.1-13.3,55.3-42.3,76.7-15.9,11.7-18.2,17.1-21.3,33.5-5.7,30.5-33.2,47.3-57.2,45.6-28.7-2.1-29.3-9.2-55-6.9-13.6,1.2-28.8,9-38.7,18.3-10.1,9.5-10,22.2-13.2,34.7-1.5,5.7-4.2,11.1-7,16.3-2.2,4.1-4.3,8.5-7.7,11.6-3,2.2-5,5.4-7.6,7.9,1.7,0,3.4,0,5.1,0,9.2,0,18.4-1.3,27.5-2.6,17-2.5,34.1-5,50.3-11,2.7-1,5.5-2.1,8.2-3.2,11.9-4.9,23.5-10.4,35.9-14.3,5.3-1.6,10.5-3.3,15.7-5.3,5.3-2.1,11.1-4.1,16-6.8,4.1-2.3,8.3-4.6,12.4-6.9,2.9-1.6,5.8-3.2,8.5-5.2,4.3-3.2,7.9-7.2,12.1-10.5,4-3.2,8-5.2,12.4-7.7,5.1-2.9,10.1-5.9,15-9s9.8-6.4,14.4-9.9c4-3.1,8.6-6.1,11.9-9.9,3.1-3.6,5.3-7.9,8.1-11.7,2.6-3.5,5.1-7.2,8-10.5,4.2-5,8.6-9.4,13.9-13.2.7-.5,1.4-1,2-1.5.1,0,.2-.2.3-.2.8-.7,1.6-1.3,2.3-2.1,2.8-.7,11.6-11.5,29.1-13.3,58.1-6,69-7.2,79.2-19.7,15.7-19.2,18.7-27.3,35.8-39.6,32.5-23.3,37.6-53.1,42.1-75.2,7.8-38.1,13.3-39.8,22.7-58.2,19.4-37.6,24.6-80.1,27.7-102.5l9.5,15.5c-.9,5.8,0,2.5,7.2,23.7h0Z"/>
  <path class="cls-1" d="M327.8,511.4c-12-6.5-23.2-9.4-41.9-29.1-14.3-15-40-44.6-59.6-51.3-5.5-1.9-5.8-5.9-14.4-12.6-22.3-17.3-23.7-33-27.4-46.3-14.1-62.9-26.2-43.8-43-68.3-2.2-3.2-17.4-30.6-33.3-44.6-14.1-12.4-31.1-22-48.6-28.4-5.5-2-11-4-16-7-4.8-2.9-9.1-6.6-13.3-10.4-2.2-1.9-4.4-3.8-6-6.2-2.5-3.6-3.5-8.1-4-12.4-.2-2.1-1-4.7-3.1-4.6-1,0-1.8.8-2.5,1.6C2.9,205.1-1.2,224,.3,241.8c.4,5.2,1.3,10.4,2.9,15.4,3.5,10.9,10.8,20.5,20.2,27.1,9.2,6.6,20.2,8.4,29.3,15.2,17.8,13.3,25.5,33.8,35.1,52.9,8.6,17.1,34.1,58.3,50,69.1,12.5,8.5,5.9,2.5,19.3,5.5,43,9.7,57.7,4.6,88.3,33,26.2,24.3,36.2,42.3,64.1,56,5.2,2.6,9.4,4.6,13.5,6.9l8.6-9.5c-1.2-.7-2.4-1.3-3.7-2h0Z"/>
  <path class="cls-1" d="M1740.5,403.2c-14.6.2-30-.3-43.1,7.3-4.3,2.5-8.4,5.1-12.5,7.8.2,1,.5,2,.3,3.1-10.4,49.9,3.4,63-3.2,58.2-1.5-1.1.4,2.9-7.2,2.1-9.4-1-3-25-6.3-51.8-.4.1-.9.2-1.3.3,0-2,.1-4.1.4-6.1-3.3-18.4-11.9-37.5-34.1-50.9-49.4-29.9-45.7-86.7-56.3-115.2-6.3-16.9-19.4-21.7-40.6-25.2-49.6-8.3-67.1-65.1-64.6-87.7,1.9-17.9,1-6.9-7.2-48.2-5-25.1,4.8-23.9,1.8-38.5-2.2-10.6-.9-9.2,6.5-13.6.3-.2.8-.3,1,0,.9,1.9,3.3,2.7,3.8,4.9.5,2.3,6.5,10.8,16.4,15.7,6.6,3.3,4.2,7,6.2,16.7,2.4,11.3,2.4,7.6,11.2,19.1,11.2,14.7,26.3,27.4,44.8,27.4,62.3-.2,102,0,112.7,126.9,2.6,31.4-6.4,54.8,8.4,81.2,1.4,2.4,5.8,12.1,4.4,11.5-2-.8-1.1-.9,2,12.5,3.9,17.3,3.4,31.9,2.4,42.1,1.1-.7,2.2-1.4,3.4-2,9.4-5,19.3-10.4,27.2-17.6,2.6-2.4,15.4-4.3,22.2-23.7,11.2-31.4-5.4-84.8,40-124.9,31.7-28,35.7-34.7,49.5-39.2,3.6-1.2,18.9-9.7,31.6-7.3,7.1,1.3,13.1-.6,20.4.8,20.4,3.9,32.1.5,40.9-4.4,49.8-27.8,75.1-5.7,105,.6,5.5,1.2.3,9,0,9.8-2.6,11.5-18.8-1.7-35.6,14.3-21.4,20.2-32.3,39.6-39.1,47.6-30.4,36-65.4,27.1-86.2,45.1-9.8,8.5-18.6,17.8-23.2,30.4-4.4,12-10.6,23.3-18.4,33.4-11.6,14.9-28.6,28.5-47.3,33-11.9,2.9-24.1,4.3-36.3,4.4h0Z"/>
  <path class="cls-1" d="M887.3,471.1c-4.6-2.6-12,7-14-6.8-1-7.2,12.4-8.5,19.7-8.9,33.4-1.6,49.5-19.5,79.3-18.1,11.5-.5,33.8,12.6,40.8,15.5,7.7,3.2,30,.9,44.8,1.1,22.1.3,56.2-43.5,67.1-47.6,32-12.1,65.2-.1,72.7,1,14.9,2.2,17.7-6.5,40.7-.6,11.3,2.9,26.1,2.7,29.3,3.8,8.7,3,17-.9,25.5-1,28.3-.2,27.8-12.8,32.2-6.5,7.9,11.1-6.5,18-21.2,19.3-81,7.3-49.7,25.9-89.9,35.6-13.4,3.2-23.5.8-49.1,22.2-4.5,3.8-22.4,25.7-24.5,30.7-6.9,16.8-21.1,29.2-36.1,40.8-7.4,5.7-27,9.6-36.9,10.2-65.7,4.1-42.6-4.2-78.3-21.5-39.1-18.9-16.7-28.6-64.9-56.2-17.9-10.3-30.7-9.3-37.3-13h0Z"/>
</svg>